<svg xmlns="http://www.w3.org/2000/svg" xmlns:xlink="http://www.w3.org/1999/xlink" width="100" height="100" viewBox="0 0 100 100"><g><g transform="translate(50 50) scale(0.69 0.69) rotate(0) translate(-50 -50)" style="fill:#1975d3"><svg fill="#1975d3" xmlns="http://www.w3.org/2000/svg" xmlns:xlink="http://www.w3.org/1999/xlink" version="1.1" x="0px" y="0px" viewBox="0 0 24 24" style="enable-background:new 0 0 24 24;" xml:space="preserve"><style type="text/css">
	.st0{fill-rule:evenodd;clip-rule:evenodd;}
</style><g><g><g><path class="st0" d="M15.413,3.467h-1.707v1.707h1.707V3.467z M12.853,12.853h-1.707c-0.471,0-0.853,0.382-0.853,0.853     c0,0.471,0.382,0.853,0.853,0.853h1.707c0.471,0,0.853-0.382,0.853-0.853C13.707,13.235,13.325,12.853,12.853,12.853z M12,6.88     c0.471,0,0.853-0.382,0.853-0.853V2.613c0-0.471-0.382-0.853-0.853-0.853c-0.471,0-0.853,0.382-0.853,0.853v3.414     C11.147,6.498,11.529,6.88,12,6.88z M17.973,16.267h-1.707c-0.471,0-0.853,0.382-0.853,0.853c0,0.471,0.382,0.853,0.853,0.853     h1.707c0.471,0,0.853-0.382,0.853-0.853C18.827,16.649,18.445,16.267,17.973,16.267z M17.973,12.853h-1.707     c-0.471,0-0.853,0.382-0.853,0.853c0,0.471,0.382,0.853,0.853,0.853h1.707c0.471,0,0.853-0.382,0.853-0.853     C18.827,13.235,18.445,12.853,17.973,12.853z M17.12,6.88c0.471,0,0.853-0.382,0.853-0.853V2.613     c0-0.471-0.382-0.853-0.853-0.853c-0.471,0-0.853,0.382-0.853,0.853v3.414C16.267,6.498,16.649,6.88,17.12,6.88z M16.267,11.147     h1.707c0.471,0,0.853-0.382,0.853-0.853c0-0.471-0.382-0.853-0.853-0.853h-1.707c-0.471,0-0.853,0.382-0.853,0.853     C15.413,10.765,15.796,11.147,16.267,11.147z M11.147,11.147h1.707c0.471,0,0.853-0.382,0.853-0.853     c0-0.471-0.382-0.853-0.853-0.853h-1.707c-0.471,0-0.853,0.382-0.853,0.853C10.293,10.765,10.675,11.147,11.147,11.147z      M7.733,16.267H6.026c-0.471,0-0.853,0.382-0.853,0.853c0,0.471,0.382,0.853,0.853,0.853h1.707c0.471,0,0.853-0.382,0.853-0.853     C8.587,16.649,8.204,16.267,7.733,16.267z M20.534,3.467h-1.707v1.707h1.707v15.36H3.466V5.173h1.707V3.467H3.466     c-0.943,0-1.706,0.764-1.706,1.707v15.36c0,0.943,0.764,1.707,1.706,1.707h17.067c0.943,0,1.707-0.764,1.707-1.707V5.173     C22.24,4.231,21.476,3.467,20.534,3.467z M7.733,12.853H6.026c-0.471,0-0.853,0.382-0.853,0.853c0,0.471,0.382,0.853,0.853,0.853     h1.707c0.471,0,0.853-0.382,0.853-0.853C8.587,13.235,8.204,12.853,7.733,12.853z M10.293,3.467H8.587v1.707h1.707V3.467z      M12.853,16.267h-1.707c-0.471,0-0.853,0.382-0.853,0.853c0,0.471,0.382,0.853,0.853,0.853h1.707     c0.471,0,0.853-0.382,0.853-0.853C13.707,16.649,13.325,16.267,12.853,16.267z M6.026,11.147h1.707     c0.471,0,0.853-0.382,0.853-0.853c0-0.471-0.382-0.853-0.853-0.853H6.026c-0.471,0-0.853,0.382-0.853,0.853     C5.173,10.765,5.555,11.147,6.026,11.147z M6.88,6.88c0.471,0,0.853-0.382,0.853-0.853V2.613c0-0.471-0.382-0.853-0.853-0.853     c-0.471,0-0.854,0.382-0.854,0.853v3.414C6.026,6.498,6.409,6.88,6.88,6.88z"></path></g></g></g></svg></g></g></svg>