<svg xmlns="http://www.w3.org/2000/svg" data-name="Layer 1" viewBox="0 0 100 100" x="0px" y="0px"><title>Artboard 22</title><path d="M58.87,52.06v4.08a2.45,2.45,0,0,1-2.45,2.45H50.15a2.45,2.45,0,0,1-2.45-2.45V52.06a2.45,2.45,0,0,1,2.45-2.45h6.28A2.45,2.45,0,0,1,58.87,52.06Zm.78-11.68a7.64,7.64,0,0,1,2.88-3,17.61,17.61,0,0,0,6.31-5.49,12.94,12.94,0,0,0,2.48-7.65,13.62,13.62,0,0,0-4.54-10.78q-4.54-4-12.46-4-7.39,0-11.89,3.48a11.51,11.51,0,0,0-4.37,8.76,1.57,1.57,0,0,0,1.54,1.67l7.14.13a2.56,2.56,0,0,0,2.54-1.8,4.57,4.57,0,0,1,1.31-2.21,5.33,5.33,0,0,1,3.73-1.36,5.44,5.44,0,0,1,4.26,1.66,6.42,6.42,0,0,1,1.5,4.46A8.84,8.84,0,0,1,58.79,29a10.8,10.8,0,0,1-3.51,3.46,24.59,24.59,0,0,0-6,5.36,10.44,10.44,0,0,0-1.58,5.08,1.74,1.74,0,0,0,1.74,1.87h7.75A1.73,1.73,0,0,0,59,43.21,8.64,8.64,0,0,1,59.66,40.38ZM97.85,63a4.53,4.53,0,0,1-.68,6.86L73.83,86.31a23.65,23.65,0,0,1-13.51,4.24q-.7,0-1.41,0L22.19,88.06H22a3.36,3.36,0,0,1-2.2-.83A4.61,4.61,0,0,1,16,89.66l-8.65.39a5.15,5.15,0,0,1-5.46-4.79l-1-19.2a5.09,5.09,0,0,1,5-5.26l8.65-.39a4.67,4.67,0,0,1,4.16,2.15c4-1.26,11.47-3.65,24,1A49.33,49.33,0,0,0,54.87,66.1l9.9.73a3.92,3.92,0,0,1-.12,7.83L47.92,75A1.09,1.09,0,0,0,48,77.13h0L64.35,77a12,12,0,0,0,5.95-1.74S84.69,66.67,92,62.19a4.61,4.61,0,0,1,5.73.75ZM13.58,82.81a2.95,2.95,0,1,0-3,2.77A2.89,2.89,0,0,0,13.58,82.81Zm75.2-22a4.32,4.32,0,0,0-5-.6l-13.56,7a6.61,6.61,0,0,1,.91,4.31C75.82,68.78,82.73,64.54,88.77,60.85ZM76,59,63.25,64l1.69.12a6.6,6.6,0,0,1,3.37,1.15l11.89-5.92A4.27,4.27,0,0,0,76,59Z"></path></svg>