<svg xmlns="http://www.w3.org/2000/svg" xmlns:xlink="http://www.w3.org/1999/xlink" width="100" height="100" viewBox="0 0 100 100"><g><g transform="translate(50 50) scale(0.69 0.69) rotate(0) translate(-50 -50)" style="fill:#00c800"><svg fill="#00c800" xmlns="http://www.w3.org/2000/svg" xmlns:xlink="http://www.w3.org/1999/xlink" version="1.1" x="0px" y="0px" viewBox="0 0 100 100" enable-background="new 0 0 100 100" xml:space="preserve"><g><g><path d="M90.587,93.621h-7.586c-1.676,0-3.034-1.357-3.034-3.033s1.358-3.035,3.034-3.035h4.552v-4.551    c0-1.676,1.358-3.035,3.034-3.035s3.034,1.359,3.034,3.035v7.586C93.621,92.264,92.263,93.621,90.587,93.621z"></path></g><g><path d="M69.801,93.621h-13.2c-1.676,0-3.034-1.357-3.034-3.033s1.358-3.035,3.034-3.035h13.2c1.676,0,3.034,1.359,3.034,3.035    S71.477,93.621,69.801,93.621z M43.399,93.621h-13.2c-1.676,0-3.035-1.357-3.035-3.033s1.359-3.035,3.035-3.035h13.2    c1.676,0,3.034,1.359,3.034,3.035S45.075,93.621,43.399,93.621z"></path></g><g><path d="M16.998,93.621H9.412c-1.676,0-3.034-1.357-3.034-3.033v-7.586c0-1.676,1.358-3.035,3.034-3.035s3.035,1.359,3.035,3.035    v4.551h4.551c1.676,0,3.035,1.359,3.035,3.035S18.674,93.621,16.998,93.621z"></path></g><g><path d="M9.412,72.836c-1.676,0-3.034-1.359-3.034-3.035V56.6c0-1.676,1.358-3.033,3.034-3.033s3.035,1.357,3.035,3.033v13.201    C12.447,71.477,11.088,72.836,9.412,72.836z M9.412,46.434c-1.676,0-3.034-1.358-3.034-3.034V30.199    c0-1.675,1.358-3.034,3.034-3.034s3.035,1.359,3.035,3.034V43.4C12.447,45.076,11.088,46.434,9.412,46.434z"></path></g><g><path d="M9.412,20.033c-1.676,0-3.034-1.358-3.034-3.034V9.413c0-1.676,1.358-3.034,3.034-3.034h7.586    c1.676,0,3.035,1.358,3.035,3.034s-1.359,3.034-3.035,3.034h-4.551v4.552C12.447,18.675,11.088,20.033,9.412,20.033z"></path></g><g><path d="M69.801,12.447H56.6c-1.676,0-3.034-1.358-3.034-3.034s1.358-3.034,3.034-3.034h13.201c1.676,0,3.034,1.358,3.034,3.034    S71.477,12.447,69.801,12.447z M43.398,12.447H30.199c-1.676,0-3.035-1.358-3.035-3.034s1.359-3.034,3.035-3.034h13.199    c1.676,0,3.035,1.358,3.035,3.034S45.074,12.447,43.398,12.447z"></path></g><g><path d="M90.587,20.033c-1.676,0-3.034-1.358-3.034-3.034v-4.552h-4.552c-1.676,0-3.034-1.358-3.034-3.034    s1.358-3.034,3.034-3.034h7.586c1.676,0,3.034,1.358,3.034,3.034v7.586C93.621,18.675,92.263,20.033,90.587,20.033z"></path></g><g><path d="M90.587,72.836c-1.676,0-3.034-1.359-3.034-3.035V56.6c0-1.676,1.358-3.033,3.034-3.033s3.034,1.357,3.034,3.033v13.201    C93.621,71.477,92.263,72.836,90.587,72.836z M90.587,46.434c-1.676,0-3.034-1.358-3.034-3.034V30.199    c0-1.675,1.358-3.034,3.034-3.034s3.034,1.359,3.034,3.034V43.4C93.621,45.076,92.263,46.434,90.587,46.434z"></path></g></g></svg></g></g></svg>