<svg xmlns="http://www.w3.org/2000/svg" xmlns:xlink="http://www.w3.org/1999/xlink" version="1.1" x="0px" y="0px" viewBox="0 0 100 100" enable-background="new 0 0 100 100" xml:space="preserve"><g><path d="M81.862,43.04v47.765H15.195V14.942h15.518c0,0.001,0,0.002,0,0.003c0,3.491,2.831,6.322,6.321,6.322h9.34   c-0.005-0.194-0.029-0.383-0.029-0.578V5.747H15.195C10.117,5.747,6,9.864,6,14.942v75.862C6,95.883,10.117,100,15.195,100h66.667   c5.078,0,9.195-4.117,9.195-9.195V36.411C88.577,39.292,85.437,41.583,81.862,43.04z"></path><path d="M90.022,0c-0.197,0-0.386,0.026-0.574,0.059C89.259,0.026,89.07,0,88.873,0h-6.896c-1.905,0-3.448,1.543-3.448,3.448   s1.543,3.448,3.448,3.448h4.598v13.793c0,7.606-6.188,13.793-13.793,13.793h-2.299c-7.606,0-13.793-6.188-13.793-13.793V6.896   h4.598c1.904,0,3.448-1.543,3.448-3.448S63.191,0,61.287,0h-6.896c-0.198,0-0.387,0.026-0.575,0.059   C53.627,0.026,53.438,0,53.241,0c-1.905,0-3.448,1.543-3.448,3.448v17.241c0,11.02,8.668,20.03,19.54,20.631v20.749   c0,7.605-6.188,13.793-13.793,13.793c-7.478,0-13.793-5.001-13.793-10.92v-1.028c5.939-1.537,10.345-6.926,10.345-13.339   c0-7.606-6.188-13.793-13.793-13.793c-7.606,0-13.794,6.187-13.794,13.793c0,6.413,4.405,11.802,10.346,13.339v1.028   c0,9.824,9.281,17.816,20.689,17.816c11.407,0,20.689-9.282,20.689-20.689V41.067c9.769-1.649,17.241-10.147,17.241-20.378V3.448   C93.471,1.543,91.928,0,90.022,0z M31.401,50.575c0-3.804,3.094-6.897,6.897-6.897c3.803,0,6.896,3.093,6.896,6.897   c0,3.803-3.094,6.896-6.896,6.896C34.495,57.472,31.401,54.378,31.401,50.575z"></path></g></svg>