<svg xmlns="http://www.w3.org/2000/svg" xmlns:xlink="http://www.w3.org/1999/xlink" width="100" height="100" viewBox="0 0 100 100"><g><g transform="translate(50 50) scale(0.69 0.69) rotate(0) translate(-50 -50)" style="fill:#00c800"><svg fill="#00c800" xmlns="http://www.w3.org/2000/svg" xmlns:xlink="http://www.w3.org/1999/xlink" version="1.1" x="0px" y="0px" viewBox="0 0 128 128" style="enable-background:new 0 0 128 128;" xml:space="preserve"><path d="M124,64l-11.7-12.9L116,34l-16.6-5.4L94,12l-17.1,3.7L64,4L51.1,15.7L34,12l-5.4,16.6L12,34l3.7,17.1L4,64l11.7,12.9L12,94  l16.6,5.4L34,116l17.1-3.7L64,124l12.9-11.7L94,116l5.4-16.6L116,94l-3.7-17.1L124,64z M84,69H69v15H59l0-15H44V59h15V44h10l0,15h15  V69z"></path></svg></g></g></svg>