<svg xmlns="http://www.w3.org/2000/svg" xmlns:xlink="http://www.w3.org/1999/xlink" width="100" height="100" viewBox="0 0 100 100"><g><g transform="translate(50 50) scale(0.69 0.69) rotate(0) translate(-50 -50)" style="fill:#484848"><svg fill="#484848" xmlns="http://www.w3.org/2000/svg" xmlns:xlink="http://www.w3.org/1999/xlink" version="1.1" x="0px" y="0px" viewBox="0 0 60 60" style="enable-background:new 0 0 60 60;" xml:space="preserve"><path d="M49.1298828,6H10.8691406C8.1845703,6,6,8.1845703,6,10.8701172v38.25C6,51.8105469,8.1845703,54,10.8691406,54h38.2607422  C51.8154297,54,54,51.8105469,54,49.1201172v-38.25C54,8.1845703,51.8154297,6,49.1298828,6z M52,49.1201172  C52,50.7080078,50.7128906,52,49.1298828,52H10.8691406C9.2871094,52,8,50.7080078,8,49.1201172v-38.25  C8,9.2871094,9.2871094,8,10.8691406,8h38.2607422C50.7128906,8,52,9.2871094,52,10.8701172V49.1201172z"></path><polygon points="17.7685547,12.6767578 15.7685547,12.6767578 15.7685547,25.453125 12.7216797,25.453125 12.7216797,27.453125   15.7685547,27.453125 15.7685547,40.2304688 17.7685547,40.2304688 17.7685547,27.453125 20.8154297,27.453125   20.8154297,25.453125 17.7685547,25.453125 "></polygon><polygon points="26.5898438,12.6767578 24.5898438,12.6767578 24.5898438,17.6787109 21.5429688,17.6787109 21.5429688,19.6787109   24.5898438,19.6787109 24.5898438,40.2304688 26.5898438,40.2304688 26.5898438,19.6787109 29.6367188,19.6787109   29.6367188,17.6787109 26.5898438,17.6787109 "></polygon><polygon points="35.4101563,12.6767578 33.4101563,12.6767578 33.4101563,32.0009766 30.3632813,32.0009766 30.3632813,34.0009766   33.4101563,34.0009766 33.4101563,40.2304688 35.4101563,40.2304688 35.4101563,34.0009766 38.4570313,34.0009766   38.4570313,32.0009766 35.4101563,32.0009766 "></polygon><polygon points="44.2314453,12.6767578 42.2314453,12.6767578 42.2314453,22.2255859 39.1845703,22.2255859 39.1845703,24.2255859   42.2314453,24.2255859 42.2314453,40.2304688 44.2314453,40.2304688 44.2314453,24.2255859 47.2783203,24.2255859   47.2783203,22.2255859 44.2314453,22.2255859 "></polygon><rect x="14.1572266" y="46.3232422" width="5.2226563" height="2"></rect><rect x="22.9785156" y="46.3232422" width="5.2226563" height="2"></rect><rect x="31.7988281" y="46.3232422" width="5.2226563" height="2"></rect><rect x="40.6201172" y="46.3232422" width="5.2226563" height="2"></rect></svg></g></g></svg>