<svg xmlns="http://www.w3.org/2000/svg" xmlns:xlink="http://www.w3.org/1999/xlink" width="100" height="100" viewBox="0 0 100 100"><g><circle stroke="none" fill="#00c800" r="48%" cx="50%" cy="50%"></circle><g transform="translate(50 50) scale(0.69 0.69) rotate(0) translate(-50 -50)" style="fill:#ffffff"><svg fill="#ffffff" xmlns="http://www.w3.org/2000/svg" xmlns:xlink="http://www.w3.org/1999/xlink" version="1.1" x="0px" y="0px" viewBox="0 0 48 48" style="enable-background:new 0 0 48 48;" xml:space="preserve"><style type="text/css">
	.st0{fill:none;}
</style><path d="M39.2,8.7c-0.4-0.4-1.1-0.5-1.6-0.3L5.2,20.7c-0.6,0.3-1,0.9-0.9,1.5c0,0.6,0.4,1.1,1,1.3l14.2,4.9l5.1,14.3  c0.2,0.6,0.8,1,1.4,1c0,0,0,0,0,0c0.7,0,1.3-0.5,1.5-1.1l12.2-32.3C39.8,9.7,39.6,9.1,39.2,8.7z M26,40.8l-4.8-13.3  c-0.2-0.4-0.5-0.8-0.9-0.9L7.1,22.1l30.2-11.4L26,40.8z M23.8,24.2c-0.4-0.4-0.4-1,0-1.4l4.9-4.9c0.4-0.4,1-0.4,1.4,0s0.4,1,0,1.4  l-4.9,4.9c-0.2,0.2-0.5,0.3-0.7,0.3S24,24.3,23.8,24.2z"></path></svg></g></g></svg>